<svg xmlns="http://www.w3.org/2000/svg" width="500" height="800" viewBox="0 0 100 160" fill="none" >
<rect width="100" height="160" fill="#C3AE99" />
<path d="M 3 125 L 4 80 L 15 12 L 38 11 L 43 10 L 65 10.2 L 70 11.2 L 87 13 L 99.5 35 L 99.5 49 L 89 42 L 92 150 L 14 150 L 18 50 L 12 80 L 11 125 Z" fill="#665A4C" stroke="#3C3128" stroke-width="0.5" />
<polyline points="42 150, 42 70, 33 35, 39 30, 32 25, 38 11" stroke="#3C3128" stroke-width="0.5" />
<polyline points="65 150, 65 70, 74 35, 68.7 30, 75 25, 70 11.2" stroke="#3C3128" stroke-width="0.5" />
<polyline points="42 70, 41.2 14, 45 12.2, 63 12.4, 67 14, 65 70" stroke="#3C3128" stroke-width="0.5" />
<path d="M 18 50 C 20 40, 20 22, 15.2 12" stroke="#3C3128" stroke-width="0.5" />
<path d="M 89 42 C 85 35, 85 15, 86.5 13" stroke="#3C3128" stroke-width="0.5" />
<polyline points="76 40, 83 40" stroke="#3C3128" stroke-width="1.5" />
<circle cx="37" cy="80" r="2.5" fill="#41342B" />
<circle cx="37" cy="110" r="2.5" fill="#41342B" />
</svg>